<?xml version="1.0" encoding="UTF-8" standalone="no"?>
<!DOCTYPE svg PUBLIC "-//W3C//DTD SVG 1.1//EN"
 "http://www.w3.org/Graphics/SVG/1.1/DTD/svg11.dtd">
<!-- Generated by graphviz version 9.0.0 (20230911.1827)
 -->
<!-- Title: EWindowView Pages: 1 -->
<svg width="85pt" height="180pt"
 viewBox="0.00 0.00 84.50 180.00" xmlns="http://www.w3.org/2000/svg" xmlns:xlink="http://www.w3.org/1999/xlink">
<g id="graph0" class="graph" transform="scale(1 1) rotate(0) translate(4 176)">
<title>EWindowView</title>
<!-- Node1 -->
<g id="Node000001" class="node">
<title>Node1</title>
<g id="a_Node000001"><a xlink:title="View of window.">
<polygon fill="#999999" stroke="none" points="72,-84 0,-84 0,0 72,0 72,-84"/>
<text text-anchor="start" x="4.88" y="-70.5" font-family="Helvetica,sans-Serif" font-size="10.00">EWindowView</text>
<text text-anchor="start" x="10.5" y="-54.5" font-family="Helvetica,sans-Serif" font-size="10.00">+</text>
<text text-anchor="start" x="27" y="-54.5" font-family="Helvetica,sans-Serif" font-size="10.00">CALC</text>
<text text-anchor="start" x="10.5" y="-38.5" font-family="Helvetica,sans-Serif" font-size="10.00">+</text>
<text text-anchor="start" x="27" y="-38.5" font-family="Helvetica,sans-Serif" font-size="10.00">MAIN</text>
<text text-anchor="start" x="10.5" y="-22.5" font-family="Helvetica,sans-Serif" font-size="10.00">+</text>
<text text-anchor="start" x="27" y="-22.5" font-family="Helvetica,sans-Serif" font-size="10.00">MULTI</text>
<text text-anchor="start" x="34.5" y="-6.5" font-family="Helvetica,sans-Serif" font-size="10.00"> </text>
<polygon fill="#666666" stroke="#666666" points="0,-66 0,-66 72,-66 72,-66 0,-66"/>
<polygon fill="#666666" stroke="#666666" points="0,-18 0,-18 25,-18 25,-18 0,-18"/>
<polygon fill="#666666" stroke="#666666" points="25,-18 25,-18 72,-18 72,-18 25,-18"/>
<polygon fill="none" stroke="#666666" points="0,0 0,-84 72,-84 72,0 0,0"/>
</a>
</g>
</g>
<!-- Node2 -->
<g id="Node000002" class="node">
<title>Node2</title>
<g id="a_Node000002"><a xlink:title=" ">
<polygon fill="white" stroke="none" points="23.5,-172 2.5,-172 2.5,-120 23.5,-120 23.5,-172"/>
<text text-anchor="start" x="7.38" y="-158.5" font-family="Helvetica,sans-Serif" font-size="10.00">str</text>
<text text-anchor="start" x="11.5" y="-142.5" font-family="Helvetica,sans-Serif" font-size="10.00"> </text>
<text text-anchor="start" x="11.5" y="-126.5" font-family="Helvetica,sans-Serif" font-size="10.00"> </text>
<polygon fill="#666666" stroke="#666666" points="2.5,-154 2.5,-154 23.5,-154 23.5,-154 2.5,-154"/>
<polygon fill="#666666" stroke="#666666" points="2.5,-138 2.5,-138 23.5,-138 23.5,-138 2.5,-138"/>
<polygon fill="none" stroke="#666666" points="2.5,-120 2.5,-172 23.5,-172 23.5,-120 2.5,-120"/>
</a>
</g>
</g>
<!-- Node2&#45;&gt;Node1 -->
<g id="edge1_Node000001_Node000002" class="edge">
<title>Node2&#45;&gt;Node1</title>
<g id="a_edge1_Node000001_Node000002"><a xlink:title=" ">
<path fill="none" stroke="#63b8ff" d="M21.11,-109.05C22.93,-100.95 24.89,-92.28 26.76,-83.99"/>
<polygon fill="none" stroke="#63b8ff" points="17.74,-108.05 18.96,-118.57 24.57,-109.59 17.74,-108.05"/>
</a>
</g>
</g>
<!-- Node3 -->
<g id="Node000003" class="node">
<title>Node3</title>
<g id="a_Node000003"><a xlink:title=" ">
<polygon fill="white" stroke="none" points="76.5,-172 41.5,-172 41.5,-120 76.5,-120 76.5,-172"/>
<text text-anchor="start" x="46.25" y="-158.5" font-family="Helvetica,sans-Serif" font-size="10.00">Enum</text>
<text text-anchor="start" x="57.5" y="-142.5" font-family="Helvetica,sans-Serif" font-size="10.00"> </text>
<text text-anchor="start" x="57.5" y="-126.5" font-family="Helvetica,sans-Serif" font-size="10.00"> </text>
<polygon fill="#666666" stroke="#666666" points="41.5,-154 41.5,-154 76.5,-154 76.5,-154 41.5,-154"/>
<polygon fill="#666666" stroke="#666666" points="41.5,-138 41.5,-138 76.5,-138 76.5,-138 41.5,-138"/>
<polygon fill="none" stroke="#666666" points="41.5,-120 41.5,-172 76.5,-172 76.5,-120 41.5,-120"/>
</a>
</g>
</g>
<!-- Node3&#45;&gt;Node1 -->
<g id="edge2_Node000001_Node000003" class="edge">
<title>Node3&#45;&gt;Node1</title>
<g id="a_edge2_Node000001_Node000003"><a xlink:title=" ">
<path fill="none" stroke="#63b8ff" d="M50.89,-109.05C49.07,-100.95 47.11,-92.28 45.24,-83.99"/>
<polygon fill="none" stroke="#63b8ff" points="47.43,-109.59 53.04,-118.57 54.26,-108.05 47.43,-109.59"/>
</a>
</g>
</g>
</g>
</svg>
