<?xml version="1.0" encoding="UTF-8" standalone="no"?>
<!DOCTYPE svg PUBLIC "-//W3C//DTD SVG 1.1//EN"
 "http://www.w3.org/Graphics/SVG/1.1/DTD/svg11.dtd">
<!-- Generated by graphviz version 9.0.0 (20230911.1827)
 -->
<!-- Title: Item Pages: 1 -->
<svg width="72pt" height="276pt"
 viewBox="0.00 0.00 72.00 276.00" xmlns="http://www.w3.org/2000/svg" xmlns:xlink="http://www.w3.org/1999/xlink">
<g id="graph0" class="graph" transform="scale(1 1) rotate(0) translate(4 272)">
<title>Item</title>
<!-- Node1 -->
<g id="Node000001" class="node">
<title>Node1</title>
<g id="a_Node000001"><a xlink:title="properties of printed article">
<polygon fill="#999999" stroke="none" points="63.5,-180 0.5,-180 0.5,0 63.5,0 63.5,-180"/>
<text text-anchor="start" x="22.62" y="-166.5" font-family="Helvetica,sans-Serif" font-size="10.00">Item</text>
<text text-anchor="start" x="4.5" y="-150.5" font-family="Helvetica,sans-Serif" font-size="10.00">+</text>
<text text-anchor="start" x="14.5" y="-150.5" font-family="Helvetica,sans-Serif" font-size="10.00">count</text>
<text text-anchor="start" x="4.5" y="-134.5" font-family="Helvetica,sans-Serif" font-size="10.00">+</text>
<text text-anchor="start" x="14.5" y="-134.5" font-family="Helvetica,sans-Serif" font-size="10.00">date</text>
<text text-anchor="start" x="4.5" y="-118.5" font-family="Helvetica,sans-Serif" font-size="10.00">+</text>
<text text-anchor="start" x="14.5" y="-118.5" font-family="Helvetica,sans-Serif" font-size="10.00">group</text>
<text text-anchor="start" x="4.5" y="-102.5" font-family="Helvetica,sans-Serif" font-size="10.00">+</text>
<text text-anchor="start" x="14.5" y="-102.5" font-family="Helvetica,sans-Serif" font-size="10.00">name</text>
<text text-anchor="start" x="4.5" y="-86.5" font-family="Helvetica,sans-Serif" font-size="10.00">+</text>
<text text-anchor="start" x="14.5" y="-86.5" font-family="Helvetica,sans-Serif" font-size="10.00">port</text>
<text text-anchor="start" x="4.5" y="-70.5" font-family="Helvetica,sans-Serif" font-size="10.00">+</text>
<text text-anchor="start" x="14.5" y="-70.5" font-family="Helvetica,sans-Serif" font-size="10.00">pos</text>
<text text-anchor="start" x="4.5" y="-54.5" font-family="Helvetica,sans-Serif" font-size="10.00">+</text>
<text text-anchor="start" x="14.5" y="-54.5" font-family="Helvetica,sans-Serif" font-size="10.00">price</text>
<text text-anchor="start" x="4.5" y="-38.5" font-family="Helvetica,sans-Serif" font-size="10.00">+</text>
<text text-anchor="start" x="14.5" y="-38.5" font-family="Helvetica,sans-Serif" font-size="10.00">price_total</text>
<text text-anchor="start" x="4.5" y="-22.5" font-family="Helvetica,sans-Serif" font-size="10.00">+</text>
<text text-anchor="start" x="14.5" y="-22.5" font-family="Helvetica,sans-Serif" font-size="10.00">user</text>
<text text-anchor="start" x="30.5" y="-6.5" font-family="Helvetica,sans-Serif" font-size="10.00"> </text>
<polygon fill="#666666" stroke="#666666" points="0.5,-162 0.5,-162 63.5,-162 63.5,-162 0.5,-162"/>
<polygon fill="#666666" stroke="#666666" points="0.5,-18 0.5,-18 12.5,-18 12.5,-18 0.5,-18"/>
<polygon fill="#666666" stroke="#666666" points="12.5,-18 12.5,-18 63.5,-18 63.5,-18 12.5,-18"/>
<polygon fill="none" stroke="#666666" points="0.5,0 0.5,-180 63.5,-180 63.5,0 0.5,0"/>
</a>
</g>
</g>
<!-- Node2 -->
<g id="Node000002" class="node">
<title>Node2</title>
<g id="a_Node000002"><a xlink:title=" ">
<polygon fill="white" stroke="none" points="64,-268 0,-268 0,-216 64,-216 64,-268"/>
<text text-anchor="start" x="5" y="-254.5" font-family="Helvetica,sans-Serif" font-size="10.00">NamedTuple</text>
<text text-anchor="start" x="30.5" y="-238.5" font-family="Helvetica,sans-Serif" font-size="10.00"> </text>
<text text-anchor="start" x="30.5" y="-222.5" font-family="Helvetica,sans-Serif" font-size="10.00"> </text>
<polygon fill="#666666" stroke="#666666" points="0,-250 0,-250 64,-250 64,-250 0,-250"/>
<polygon fill="#666666" stroke="#666666" points="0,-234 0,-234 64,-234 64,-234 0,-234"/>
<polygon fill="none" stroke="#666666" points="0,-216 0,-268 64,-268 64,-216 0,-216"/>
</a>
</g>
</g>
<!-- Node2&#45;&gt;Node1 -->
<g id="edge1_Node000001_Node000002" class="edge">
<title>Node2&#45;&gt;Node1</title>
<g id="a_edge1_Node000001_Node000002"><a xlink:title=" ">
<path fill="none" stroke="#63b8ff" d="M32,-204.83C32,-197.13 32,-188.68 32,-179.98"/>
<polygon fill="none" stroke="#63b8ff" points="28.5,-204.72 32,-214.72 35.5,-204.72 28.5,-204.72"/>
</a>
</g>
</g>
</g>
</svg>
