<?xml version="1.0" encoding="UTF-8" standalone="no"?>
<!DOCTYPE svg PUBLIC "-//W3C//DTD SVG 1.1//EN"
 "http://www.w3.org/Graphics/SVG/1.1/DTD/svg11.dtd">
<!-- Generated by graphviz version 9.0.0 (20230911.1827)
 -->
<!-- Title: MainWindow Pages: 1 -->
<svg width="192pt" height="496pt"
 viewBox="0.00 0.00 191.50 496.00" xmlns="http://www.w3.org/2000/svg" xmlns:xlink="http://www.w3.org/1999/xlink">
<g id="graph0" class="graph" transform="scale(1 1) rotate(0) translate(4 492)">
<title>MainWindow</title>
<!-- Node1 -->
<g id="Node000001" class="node">
<title>Node1</title>
<g id="a_Node000001"><a xlink:title="The view&#45;controller for main window.">
<polygon fill="#999999" stroke="none" points="149.5,-400 33.5,-400 33.5,0 149.5,0 149.5,-400"/>
<text text-anchor="start" x="63.75" y="-386.5" font-family="Helvetica,sans-Serif" font-size="10.00">MainWindow</text>
<text text-anchor="start" x="37.5" y="-370.5" font-family="Helvetica,sans-Serif" font-size="10.00">+</text>
<text text-anchor="start" x="47.5" y="-370.5" font-family="Helvetica,sans-Serif" font-size="10.00">action_58mm</text>
<text text-anchor="start" x="37.5" y="-354.5" font-family="Helvetica,sans-Serif" font-size="10.00">+</text>
<text text-anchor="start" x="47.5" y="-354.5" font-family="Helvetica,sans-Serif" font-size="10.00">action_80mm</text>
<text text-anchor="start" x="37.5" y="-338.5" font-family="Helvetica,sans-Serif" font-size="10.00">+</text>
<text text-anchor="start" x="47.5" y="-338.5" font-family="Helvetica,sans-Serif" font-size="10.00">action_about_app</text>
<text text-anchor="start" x="37.5" y="-322.5" font-family="Helvetica,sans-Serif" font-size="10.00">+</text>
<text text-anchor="start" x="47.5" y="-322.5" font-family="Helvetica,sans-Serif" font-size="10.00">action_article_preview</text>
<text text-anchor="start" x="37.5" y="-306.5" font-family="Helvetica,sans-Serif" font-size="10.00">+</text>
<text text-anchor="start" x="47.5" y="-306.5" font-family="Helvetica,sans-Serif" font-size="10.00">action_articles_edit</text>
<text text-anchor="start" x="37.5" y="-290.5" font-family="Helvetica,sans-Serif" font-size="10.00">+</text>
<text text-anchor="start" x="47.5" y="-290.5" font-family="Helvetica,sans-Serif" font-size="10.00">action_articles_export</text>
<text text-anchor="start" x="37.5" y="-274.5" font-family="Helvetica,sans-Serif" font-size="10.00">+</text>
<text text-anchor="start" x="47.5" y="-274.5" font-family="Helvetica,sans-Serif" font-size="10.00">action_articles_import</text>
<text text-anchor="start" x="37.5" y="-258.5" font-family="Helvetica,sans-Serif" font-size="10.00">+</text>
<text text-anchor="start" x="47.5" y="-258.5" font-family="Helvetica,sans-Serif" font-size="10.00">action_articles_new</text>
<text text-anchor="start" x="37.5" y="-242.5" font-family="Helvetica,sans-Serif" font-size="10.00">+</text>
<text text-anchor="start" x="47.5" y="-242.5" font-family="Helvetica,sans-Serif" font-size="10.00">action_articles_pdf</text>
<text text-anchor="start" x="47.5" y="-230.5" font-family="Helvetica,sans-Serif" font-size="10.00">_import</text>
<text text-anchor="start" x="37.5" y="-214.5" font-family="Helvetica,sans-Serif" font-size="10.00">+</text>
<text text-anchor="start" x="47.5" y="-214.5" font-family="Helvetica,sans-Serif" font-size="10.00">action_auto</text>
<text text-anchor="start" x="47.5" y="-198.5" font-family="Helvetica,sans-Serif" font-size="10.00">and 125 more...</text>
<text text-anchor="start" x="37.5" y="-182.5" font-family="Helvetica,sans-Serif" font-size="10.00">+</text>
<text text-anchor="start" x="47.5" y="-182.5" font-family="Helvetica,sans-Serif" font-size="10.00">resized</text>
<text text-anchor="start" x="37.5" y="-166.5" font-family="Helvetica,sans-Serif" font-size="10.00">+</text>
<text text-anchor="start" x="47.5" y="-166.5" font-family="Helvetica,sans-Serif" font-size="10.00">__init__()</text>
<text text-anchor="start" x="37.5" y="-150.5" font-family="Helvetica,sans-Serif" font-size="10.00">+</text>
<text text-anchor="start" x="47.5" y="-150.5" font-family="Helvetica,sans-Serif" font-size="10.00">block_ui()</text>
<text text-anchor="start" x="37.5" y="-134.5" font-family="Helvetica,sans-Serif" font-size="10.00">+</text>
<text text-anchor="start" x="47.5" y="-134.5" font-family="Helvetica,sans-Serif" font-size="10.00">btn_article_preview()</text>
<text text-anchor="start" x="37.5" y="-118.5" font-family="Helvetica,sans-Serif" font-size="10.00">+</text>
<text text-anchor="start" x="47.5" y="-118.5" font-family="Helvetica,sans-Serif" font-size="10.00">btn_calc_clicked()</text>
<text text-anchor="start" x="37.5" y="-102.5" font-family="Helvetica,sans-Serif" font-size="10.00">+</text>
<text text-anchor="start" x="47.5" y="-102.5" font-family="Helvetica,sans-Serif" font-size="10.00">btn_change_item()</text>
<text text-anchor="start" x="37.5" y="-86.5" font-family="Helvetica,sans-Serif" font-size="10.00">+</text>
<text text-anchor="start" x="47.5" y="-86.5" font-family="Helvetica,sans-Serif" font-size="10.00">btn_change_user()</text>
<text text-anchor="start" x="37.5" y="-70.5" font-family="Helvetica,sans-Serif" font-size="10.00">+</text>
<text text-anchor="start" x="47.5" y="-70.5" font-family="Helvetica,sans-Serif" font-size="10.00">btn_clear_clicked()</text>
<text text-anchor="start" x="37.5" y="-54.5" font-family="Helvetica,sans-Serif" font-size="10.00">+</text>
<text text-anchor="start" x="47.5" y="-54.5" font-family="Helvetica,sans-Serif" font-size="10.00">btn_combine_auto()</text>
<text text-anchor="start" x="37.5" y="-38.5" font-family="Helvetica,sans-Serif" font-size="10.00">+</text>
<text text-anchor="start" x="47.5" y="-38.5" font-family="Helvetica,sans-Serif" font-size="10.00">btn_combine_manual()</text>
<text text-anchor="start" x="37.5" y="-22.5" font-family="Helvetica,sans-Serif" font-size="10.00">+</text>
<text text-anchor="start" x="47.5" y="-22.5" font-family="Helvetica,sans-Serif" font-size="10.00">btn_item_clicked()</text>
<text text-anchor="start" x="47.5" y="-6.5" font-family="Helvetica,sans-Serif" font-size="10.00">and 39 more...</text>
<polygon fill="#666666" stroke="#666666" points="33.5,-382 33.5,-382 149.5,-382 149.5,-382 33.5,-382"/>
<polygon fill="#666666" stroke="#666666" points="33.5,-178 33.5,-178 45.5,-178 45.5,-178 33.5,-178"/>
<polygon fill="#666666" stroke="#666666" points="45.5,-178 45.5,-178 149.5,-178 149.5,-178 45.5,-178"/>
<polygon fill="none" stroke="#666666" points="33.5,0 33.5,-400 149.5,-400 149.5,0 33.5,0"/>
</a>
</g>
</g>
<!-- Node2 -->
<g id="Node000002" class="node">
<title>Node2</title>
<g id="a_Node000002"><a xlink:title=" ">
<polygon fill="white" stroke="none" points="83,-488 0,-488 0,-436 83,-436 83,-488"/>
<text text-anchor="start" x="4.75" y="-474.5" font-family="Helvetica,sans-Serif" font-size="10.00">WINDOW_TYPE</text>
<text text-anchor="start" x="40" y="-458.5" font-family="Helvetica,sans-Serif" font-size="10.00"> </text>
<text text-anchor="start" x="40" y="-442.5" font-family="Helvetica,sans-Serif" font-size="10.00"> </text>
<polygon fill="#666666" stroke="#666666" points="0,-470 0,-470 83,-470 83,-470 0,-470"/>
<polygon fill="#666666" stroke="#666666" points="0,-454 0,-454 83,-454 83,-454 0,-454"/>
<polygon fill="none" stroke="#666666" points="0,-436 0,-488 83,-488 83,-436 0,-436"/>
</a>
</g>
</g>
<!-- Node2&#45;&gt;Node1 -->
<g id="edge1_Node000001_Node000002" class="edge">
<title>Node2&#45;&gt;Node1</title>
<g id="a_edge1_Node000001_Node000002"><a xlink:title=" ">
<path fill="none" stroke="#63b8ff" d="M48.42,-425.02C49.87,-417.49 51.49,-409.06 53.23,-400"/>
<polygon fill="none" stroke="#63b8ff" points="45.03,-424.1 46.58,-434.58 51.91,-425.42 45.03,-424.1"/>
</a>
</g>
</g>
<!-- Node3 -->
<g id="Node000003" class="node">
<title>Node3</title>
<g id="a_Node000003"><a xlink:title=" ">
<polygon fill="white" stroke="none" points="183.5,-488 101.5,-488 101.5,-436 183.5,-436 183.5,-488"/>
<text text-anchor="start" x="106.5" y="-474.5" font-family="Helvetica,sans-Serif" font-size="10.00">MAIN_WINDOW</text>
<text text-anchor="start" x="141" y="-458.5" font-family="Helvetica,sans-Serif" font-size="10.00"> </text>
<text text-anchor="start" x="141" y="-442.5" font-family="Helvetica,sans-Serif" font-size="10.00"> </text>
<polygon fill="#666666" stroke="#666666" points="101.5,-470 101.5,-470 183.5,-470 183.5,-470 101.5,-470"/>
<polygon fill="#666666" stroke="#666666" points="101.5,-454 101.5,-454 183.5,-454 183.5,-454 101.5,-454"/>
<polygon fill="none" stroke="#666666" points="101.5,-436 101.5,-488 183.5,-488 183.5,-436 101.5,-436"/>
</a>
</g>
</g>
<!-- Node3&#45;&gt;Node1 -->
<g id="edge2_Node000001_Node000003" class="edge">
<title>Node3&#45;&gt;Node1</title>
<g id="a_edge2_Node000001_Node000003"><a xlink:title=" ">
<path fill="none" stroke="#63b8ff" d="M135.44,-425.02C133.97,-417.49 132.31,-409.06 130.53,-400"/>
<polygon fill="none" stroke="#63b8ff" points="131.96,-425.45 137.32,-434.58 138.83,-424.1 131.96,-425.45"/>
</a>
</g>
</g>
</g>
</svg>
