<?xml version="1.0" encoding="UTF-8" standalone="no"?>
<!DOCTYPE svg PUBLIC "-//W3C//DTD SVG 1.1//EN"
 "http://www.w3.org/Graphics/SVG/1.1/DTD/svg11.dtd">
<!-- Generated by graphviz version 9.0.0 (20230911.1827)
 -->
<!-- Title: EUser Pages: 1 -->
<svg width="82pt" height="228pt"
 viewBox="0.00 0.00 82.00 228.00" xmlns="http://www.w3.org/2000/svg" xmlns:xlink="http://www.w3.org/1999/xlink">
<g id="graph0" class="graph" transform="scale(1 1) rotate(0) translate(4 224)">
<title>EUser</title>
<!-- Node1 -->
<g id="Node000001" class="node">
<title>Node1</title>
<g id="a_Node000001"><a xlink:title="Present users.">
<polygon fill="#999999" stroke="none" points="58,-132 9,-132 9,0 58,0 58,-132"/>
<text text-anchor="start" x="20" y="-118.5" font-family="Helvetica,sans-Serif" font-size="10.00">EUser</text>
<text text-anchor="start" x="13" y="-102.5" font-family="Helvetica,sans-Serif" font-size="10.00">+</text>
<text text-anchor="start" x="23" y="-102.5" font-family="Helvetica,sans-Serif" font-size="10.00">ADMIN</text>
<text text-anchor="start" x="13" y="-86.5" font-family="Helvetica,sans-Serif" font-size="10.00">+</text>
<text text-anchor="start" x="23" y="-86.5" font-family="Helvetica,sans-Serif" font-size="10.00">B</text>
<text text-anchor="start" x="13" y="-70.5" font-family="Helvetica,sans-Serif" font-size="10.00">+</text>
<text text-anchor="start" x="23" y="-70.5" font-family="Helvetica,sans-Serif" font-size="10.00">FREE</text>
<text text-anchor="start" x="13" y="-54.5" font-family="Helvetica,sans-Serif" font-size="10.00">+</text>
<text text-anchor="start" x="23" y="-54.5" font-family="Helvetica,sans-Serif" font-size="10.00">HOST</text>
<text text-anchor="start" x="13" y="-38.5" font-family="Helvetica,sans-Serif" font-size="10.00">+</text>
<text text-anchor="start" x="23" y="-38.5" font-family="Helvetica,sans-Serif" font-size="10.00">LOCAL</text>
<text text-anchor="start" x="13" y="-22.5" font-family="Helvetica,sans-Serif" font-size="10.00">+</text>
<text text-anchor="start" x="23" y="-22.5" font-family="Helvetica,sans-Serif" font-size="10.00">USER</text>
<text text-anchor="start" x="32" y="-6.5" font-family="Helvetica,sans-Serif" font-size="10.00"> </text>
<polygon fill="#666666" stroke="#666666" points="9,-114 9,-114 58,-114 58,-114 9,-114"/>
<polygon fill="#666666" stroke="#666666" points="9,-18 9,-18 21,-18 21,-18 9,-18"/>
<polygon fill="#666666" stroke="#666666" points="21,-18 21,-18 58,-18 58,-18 21,-18"/>
<polygon fill="none" stroke="#666666" points="9,0 9,-132 58,-132 58,0 9,0"/>
</a>
</g>
</g>
<!-- Node2 -->
<g id="Node000002" class="node">
<title>Node2</title>
<g id="a_Node000002"><a xlink:title=" ">
<polygon fill="white" stroke="none" points="21,-220 0,-220 0,-168 21,-168 21,-220"/>
<text text-anchor="start" x="4.88" y="-206.5" font-family="Helvetica,sans-Serif" font-size="10.00">str</text>
<text text-anchor="start" x="9" y="-190.5" font-family="Helvetica,sans-Serif" font-size="10.00"> </text>
<text text-anchor="start" x="9" y="-174.5" font-family="Helvetica,sans-Serif" font-size="10.00"> </text>
<polygon fill="#666666" stroke="#666666" points="0,-202 0,-202 21,-202 21,-202 0,-202"/>
<polygon fill="#666666" stroke="#666666" points="0,-186 0,-186 21,-186 21,-186 0,-186"/>
<polygon fill="none" stroke="#666666" points="0,-168 0,-220 21,-220 21,-168 0,-168"/>
</a>
</g>
</g>
<!-- Node2&#45;&gt;Node1 -->
<g id="edge1_Node000001_Node000002" class="edge">
<title>Node2&#45;&gt;Node1</title>
<g id="a_edge1_Node000001_Node000002"><a xlink:title=" ">
<path fill="none" stroke="#63b8ff" d="M17.11,-156.79C18.54,-148.94 20.1,-140.4 21.67,-131.82"/>
<polygon fill="none" stroke="#63b8ff" points="13.67,-156.15 15.32,-166.62 20.55,-157.41 13.67,-156.15"/>
</a>
</g>
</g>
<!-- Node3 -->
<g id="Node000003" class="node">
<title>Node3</title>
<g id="a_Node000003"><a xlink:title=" ">
<polygon fill="white" stroke="none" points="74,-220 39,-220 39,-168 74,-168 74,-220"/>
<text text-anchor="start" x="43.75" y="-206.5" font-family="Helvetica,sans-Serif" font-size="10.00">Enum</text>
<text text-anchor="start" x="55" y="-190.5" font-family="Helvetica,sans-Serif" font-size="10.00"> </text>
<text text-anchor="start" x="55" y="-174.5" font-family="Helvetica,sans-Serif" font-size="10.00"> </text>
<polygon fill="#666666" stroke="#666666" points="39,-202 39,-202 74,-202 74,-202 39,-202"/>
<polygon fill="#666666" stroke="#666666" points="39,-186 39,-186 74,-186 74,-186 39,-186"/>
<polygon fill="none" stroke="#666666" points="39,-168 39,-220 74,-220 74,-168 39,-168"/>
</a>
</g>
</g>
<!-- Node3&#45;&gt;Node1 -->
<g id="edge2_Node000001_Node000003" class="edge">
<title>Node3&#45;&gt;Node1</title>
<g id="a_edge2_Node000001_Node000003"><a xlink:title=" ">
<path fill="none" stroke="#63b8ff" d="M49.89,-156.79C48.46,-148.94 46.9,-140.4 45.33,-131.82"/>
<polygon fill="none" stroke="#63b8ff" points="46.45,-157.41 51.68,-166.62 53.33,-156.15 46.45,-157.41"/>
</a>
</g>
</g>
</g>
</svg>
