<?xml version="1.0" encoding="UTF-8" standalone="no"?>
<!DOCTYPE svg PUBLIC "-//W3C//DTD SVG 1.1//EN"
 "http://www.w3.org/Graphics/SVG/1.1/DTD/svg11.dtd">
<!-- Generated by graphviz version 9.0.0 (20230911.1827)
 -->
<!-- Title: ETheme Pages: 1 -->
<svg width="82pt" height="212pt"
 viewBox="0.00 0.00 82.00 212.00" xmlns="http://www.w3.org/2000/svg" xmlns:xlink="http://www.w3.org/1999/xlink">
<g id="graph0" class="graph" transform="scale(1 1) rotate(0) translate(4 208)">
<title>ETheme</title>
<!-- Node1 -->
<g id="Node000001" class="node">
<title>Node1</title>
<g id="a_Node000001"><a xlink:title="Available application themes.">
<polygon fill="#999999" stroke="none" points="63,-116 4,-116 4,0 63,0 63,-116"/>
<text text-anchor="start" x="15.5" y="-102.5" font-family="Helvetica,sans-Serif" font-size="10.00">ETheme</text>
<text text-anchor="start" x="8" y="-86.5" font-family="Helvetica,sans-Serif" font-size="10.00">+</text>
<text text-anchor="start" x="18" y="-86.5" font-family="Helvetica,sans-Serif" font-size="10.00">AUTO</text>
<text text-anchor="start" x="8" y="-70.5" font-family="Helvetica,sans-Serif" font-size="10.00">+</text>
<text text-anchor="start" x="18" y="-70.5" font-family="Helvetica,sans-Serif" font-size="10.00">CLASSIC</text>
<text text-anchor="start" x="8" y="-54.5" font-family="Helvetica,sans-Serif" font-size="10.00">+</text>
<text text-anchor="start" x="18" y="-54.5" font-family="Helvetica,sans-Serif" font-size="10.00">DARK</text>
<text text-anchor="start" x="8" y="-38.5" font-family="Helvetica,sans-Serif" font-size="10.00">+</text>
<text text-anchor="start" x="18" y="-38.5" font-family="Helvetica,sans-Serif" font-size="10.00">LIGHT</text>
<text text-anchor="start" x="8" y="-22.5" font-family="Helvetica,sans-Serif" font-size="10.00">+</text>
<text text-anchor="start" x="18" y="-22.5" font-family="Helvetica,sans-Serif" font-size="10.00">SYSTEM</text>
<text text-anchor="start" x="32" y="-6.5" font-family="Helvetica,sans-Serif" font-size="10.00"> </text>
<polygon fill="#666666" stroke="#666666" points="4,-98 4,-98 63,-98 63,-98 4,-98"/>
<polygon fill="#666666" stroke="#666666" points="4,-18 4,-18 16,-18 16,-18 4,-18"/>
<polygon fill="#666666" stroke="#666666" points="16,-18 16,-18 63,-18 63,-18 16,-18"/>
<polygon fill="none" stroke="#666666" points="4,0 4,-116 63,-116 63,0 4,0"/>
</a>
</g>
</g>
<!-- Node2 -->
<g id="Node000002" class="node">
<title>Node2</title>
<g id="a_Node000002"><a xlink:title=" ">
<polygon fill="white" stroke="none" points="21,-204 0,-204 0,-152 21,-152 21,-204"/>
<text text-anchor="start" x="4.88" y="-190.5" font-family="Helvetica,sans-Serif" font-size="10.00">str</text>
<text text-anchor="start" x="9" y="-174.5" font-family="Helvetica,sans-Serif" font-size="10.00"> </text>
<text text-anchor="start" x="9" y="-158.5" font-family="Helvetica,sans-Serif" font-size="10.00"> </text>
<polygon fill="#666666" stroke="#666666" points="0,-186 0,-186 21,-186 21,-186 0,-186"/>
<polygon fill="#666666" stroke="#666666" points="0,-170 0,-170 21,-170 21,-170 0,-170"/>
<polygon fill="none" stroke="#666666" points="0,-152 0,-204 21,-204 21,-152 0,-152"/>
</a>
</g>
</g>
<!-- Node2&#45;&gt;Node1 -->
<g id="edge1_Node000001_Node000002" class="edge">
<title>Node2&#45;&gt;Node1</title>
<g id="a_edge1_Node000001_Node000002"><a xlink:title=" ">
<path fill="none" stroke="#63b8ff" d="M17.5,-141.1C19.06,-133.09 20.75,-124.41 22.43,-115.79"/>
<polygon fill="none" stroke="#63b8ff" points="14.09,-140.29 15.61,-150.78 20.96,-141.63 14.09,-140.29"/>
</a>
</g>
</g>
<!-- Node3 -->
<g id="Node000003" class="node">
<title>Node3</title>
<g id="a_Node000003"><a xlink:title=" ">
<polygon fill="white" stroke="none" points="74,-204 39,-204 39,-152 74,-152 74,-204"/>
<text text-anchor="start" x="43.75" y="-190.5" font-family="Helvetica,sans-Serif" font-size="10.00">Enum</text>
<text text-anchor="start" x="55" y="-174.5" font-family="Helvetica,sans-Serif" font-size="10.00"> </text>
<text text-anchor="start" x="55" y="-158.5" font-family="Helvetica,sans-Serif" font-size="10.00"> </text>
<polygon fill="#666666" stroke="#666666" points="39,-186 39,-186 74,-186 74,-186 39,-186"/>
<polygon fill="#666666" stroke="#666666" points="39,-170 39,-170 74,-170 74,-170 39,-170"/>
<polygon fill="none" stroke="#666666" points="39,-152 39,-204 74,-204 74,-152 39,-152"/>
</a>
</g>
</g>
<!-- Node3&#45;&gt;Node1 -->
<g id="edge2_Node000001_Node000003" class="edge">
<title>Node3&#45;&gt;Node1</title>
<g id="a_edge2_Node000001_Node000003"><a xlink:title=" ">
<path fill="none" stroke="#63b8ff" d="M49.5,-141.1C47.94,-133.09 46.25,-124.41 44.57,-115.79"/>
<polygon fill="none" stroke="#63b8ff" points="46.04,-141.63 51.39,-150.78 52.91,-140.29 46.04,-141.63"/>
</a>
</g>
</g>
</g>
</svg>
