<?xml version="1.0" encoding="UTF-8" standalone="no"?>
<!DOCTYPE svg PUBLIC "-//W3C//DTD SVG 1.1//EN"
 "http://www.w3.org/Graphics/SVG/1.1/DTD/svg11.dtd">
<!-- Generated by graphviz version 9.0.0 (20230911.1827)
 -->
<!-- Title: ELanguages Pages: 1 -->
<svg width="82pt" height="164pt"
 viewBox="0.00 0.00 82.00 164.00" xmlns="http://www.w3.org/2000/svg" xmlns:xlink="http://www.w3.org/1999/xlink">
<g id="graph0" class="graph" transform="scale(1 1) rotate(0) translate(4 160)">
<title>ELanguages</title>
<!-- Node1 -->
<g id="Node000001" class="node">
<title>Node1</title>
<g id="a_Node000001"><a xlink:title="Available application languages.">
<polygon fill="#999999" stroke="none" points="65.5,-68 1.5,-68 1.5,0 65.5,0 65.5,-68"/>
<text text-anchor="start" x="6.5" y="-54.5" font-family="Helvetica,sans-Serif" font-size="10.00">ELanguages</text>
<text text-anchor="start" x="6.5" y="-38.5" font-family="Helvetica,sans-Serif" font-size="10.00">+</text>
<text text-anchor="start" x="17.5" y="-38.5" font-family="Helvetica,sans-Serif" font-size="10.00">ENGLISH</text>
<text text-anchor="start" x="6.5" y="-22.5" font-family="Helvetica,sans-Serif" font-size="10.00">+</text>
<text text-anchor="start" x="17.5" y="-22.5" font-family="Helvetica,sans-Serif" font-size="10.00">GERMAN</text>
<text text-anchor="start" x="32" y="-6.5" font-family="Helvetica,sans-Serif" font-size="10.00"> </text>
<polygon fill="#666666" stroke="#666666" points="1.5,-50 1.5,-50 65.5,-50 65.5,-50 1.5,-50"/>
<polygon fill="#666666" stroke="#666666" points="1.5,-18 1.5,-18 15.5,-18 15.5,-18 1.5,-18"/>
<polygon fill="#666666" stroke="#666666" points="15.5,-18 15.5,-18 65.5,-18 65.5,-18 15.5,-18"/>
<polygon fill="none" stroke="#666666" points="1.5,0 1.5,-68 65.5,-68 65.5,0 1.5,0"/>
</a>
</g>
</g>
<!-- Node2 -->
<g id="Node000002" class="node">
<title>Node2</title>
<g id="a_Node000002"><a xlink:title=" ">
<polygon fill="white" stroke="none" points="21,-156 0,-156 0,-104 21,-104 21,-156"/>
<text text-anchor="start" x="4.88" y="-142.5" font-family="Helvetica,sans-Serif" font-size="10.00">str</text>
<text text-anchor="start" x="9" y="-126.5" font-family="Helvetica,sans-Serif" font-size="10.00"> </text>
<text text-anchor="start" x="9" y="-110.5" font-family="Helvetica,sans-Serif" font-size="10.00"> </text>
<polygon fill="#666666" stroke="#666666" points="0,-138 0,-138 21,-138 21,-138 0,-138"/>
<polygon fill="#666666" stroke="#666666" points="0,-122 0,-122 21,-122 21,-122 0,-122"/>
<polygon fill="none" stroke="#666666" points="0,-104 0,-156 21,-156 21,-104 0,-104"/>
</a>
</g>
</g>
<!-- Node2&#45;&gt;Node1 -->
<g id="edge1_Node000001_Node000002" class="edge">
<title>Node2&#45;&gt;Node1</title>
<g id="a_edge1_Node000001_Node000002"><a xlink:title=" ">
<path fill="none" stroke="#63b8ff" d="M19.24,-93.26C21.3,-84.85 23.48,-75.93 25.51,-67.67"/>
<polygon fill="none" stroke="#63b8ff" points="15.88,-92.29 16.9,-102.83 22.68,-93.95 15.88,-92.29"/>
</a>
</g>
</g>
<!-- Node3 -->
<g id="Node000003" class="node">
<title>Node3</title>
<g id="a_Node000003"><a xlink:title=" ">
<polygon fill="white" stroke="none" points="74,-156 39,-156 39,-104 74,-104 74,-156"/>
<text text-anchor="start" x="43.75" y="-142.5" font-family="Helvetica,sans-Serif" font-size="10.00">Enum</text>
<text text-anchor="start" x="55" y="-126.5" font-family="Helvetica,sans-Serif" font-size="10.00"> </text>
<text text-anchor="start" x="55" y="-110.5" font-family="Helvetica,sans-Serif" font-size="10.00"> </text>
<polygon fill="#666666" stroke="#666666" points="39,-138 39,-138 74,-138 74,-138 39,-138"/>
<polygon fill="#666666" stroke="#666666" points="39,-122 39,-122 74,-122 74,-122 39,-122"/>
<polygon fill="none" stroke="#666666" points="39,-104 39,-156 74,-156 74,-104 39,-104"/>
</a>
</g>
</g>
<!-- Node3&#45;&gt;Node1 -->
<g id="edge2_Node000001_Node000003" class="edge">
<title>Node3&#45;&gt;Node1</title>
<g id="a_edge2_Node000001_Node000003"><a xlink:title=" ">
<path fill="none" stroke="#63b8ff" d="M47.76,-93.26C45.7,-84.85 43.52,-75.93 41.49,-67.67"/>
<polygon fill="none" stroke="#63b8ff" points="44.32,-93.95 50.1,-102.83 51.12,-92.29 44.32,-93.95"/>
</a>
</g>
</g>
</g>
</svg>
