<?xml version="1.0" encoding="UTF-8" standalone="no"?>
<!DOCTYPE svg PUBLIC "-//W3C//DTD SVG 1.1//EN"
 "http://www.w3.org/Graphics/SVG/1.1/DTD/svg11.dtd">
<!-- Generated by graphviz version 9.0.0 (20230911.1827)
 -->
<!-- Title: EConfigSelection Pages: 1 -->
<svg width="92pt" height="212pt"
 viewBox="0.00 0.00 92.00 212.00" xmlns="http://www.w3.org/2000/svg" xmlns:xlink="http://www.w3.org/1999/xlink">
<g id="graph0" class="graph" transform="scale(1 1) rotate(0) translate(4 208)">
<title>EConfigSelection</title>
<!-- Node1 -->
<g id="Node000001" class="node">
<title>Node1</title>
<g id="a_Node000001"><a xlink:title="Mode of configuration change.">
<polygon fill="#999999" stroke="none" points="84,-116 0,-116 0,0 84,0 84,-116"/>
<text text-anchor="start" x="4.88" y="-102.5" font-family="Helvetica,sans-Serif" font-size="10.00">EConfigSelection</text>
<text text-anchor="start" x="5" y="-86.5" font-family="Helvetica,sans-Serif" font-size="10.00">+</text>
<text text-anchor="start" x="16" y="-86.5" font-family="Helvetica,sans-Serif" font-size="10.00">EDIT</text>
<text text-anchor="start" x="5" y="-70.5" font-family="Helvetica,sans-Serif" font-size="10.00">+</text>
<text text-anchor="start" x="16" y="-70.5" font-family="Helvetica,sans-Serif" font-size="10.00">EXPORT</text>
<text text-anchor="start" x="5" y="-54.5" font-family="Helvetica,sans-Serif" font-size="10.00">+</text>
<text text-anchor="start" x="16" y="-54.5" font-family="Helvetica,sans-Serif" font-size="10.00">IMPORT</text>
<text text-anchor="start" x="5" y="-38.5" font-family="Helvetica,sans-Serif" font-size="10.00">+</text>
<text text-anchor="start" x="16" y="-38.5" font-family="Helvetica,sans-Serif" font-size="10.00">PDF_IMPORT</text>
<text text-anchor="start" x="5" y="-22.5" font-family="Helvetica,sans-Serif" font-size="10.00">+</text>
<text text-anchor="start" x="16" y="-22.5" font-family="Helvetica,sans-Serif" font-size="10.00">RESET</text>
<text text-anchor="start" x="40.5" y="-6.5" font-family="Helvetica,sans-Serif" font-size="10.00"> </text>
<polygon fill="#666666" stroke="#666666" points="0,-98 0,-98 84,-98 84,-98 0,-98"/>
<polygon fill="#666666" stroke="#666666" points="0,-18 0,-18 14,-18 14,-18 0,-18"/>
<polygon fill="#666666" stroke="#666666" points="14,-18 14,-18 84,-18 84,-18 14,-18"/>
<polygon fill="none" stroke="#666666" points="0,0 0,-116 84,-116 84,0 0,0"/>
</a>
</g>
</g>
<!-- Node2 -->
<g id="Node000002" class="node">
<title>Node2</title>
<g id="a_Node000002"><a xlink:title=" ">
<polygon fill="white" stroke="none" points="29.5,-204 8.5,-204 8.5,-152 29.5,-152 29.5,-204"/>
<text text-anchor="start" x="13.38" y="-190.5" font-family="Helvetica,sans-Serif" font-size="10.00">str</text>
<text text-anchor="start" x="17.5" y="-174.5" font-family="Helvetica,sans-Serif" font-size="10.00"> </text>
<text text-anchor="start" x="17.5" y="-158.5" font-family="Helvetica,sans-Serif" font-size="10.00"> </text>
<polygon fill="#666666" stroke="#666666" points="8.5,-186 8.5,-186 29.5,-186 29.5,-186 8.5,-186"/>
<polygon fill="#666666" stroke="#666666" points="8.5,-170 8.5,-170 29.5,-170 29.5,-170 8.5,-170"/>
<polygon fill="none" stroke="#666666" points="8.5,-152 8.5,-204 29.5,-204 29.5,-152 8.5,-152"/>
</a>
</g>
</g>
<!-- Node2&#45;&gt;Node1 -->
<g id="edge1_Node000001_Node000002" class="edge">
<title>Node2&#45;&gt;Node1</title>
<g id="a_edge1_Node000001_Node000002"><a xlink:title=" ">
<path fill="none" stroke="#63b8ff" d="M26,-141.1C27.56,-133.09 29.25,-124.41 30.93,-115.79"/>
<polygon fill="none" stroke="#63b8ff" points="22.59,-140.29 24.11,-150.78 29.46,-141.63 22.59,-140.29"/>
</a>
</g>
</g>
<!-- Node3 -->
<g id="Node000003" class="node">
<title>Node3</title>
<g id="a_Node000003"><a xlink:title=" ">
<polygon fill="white" stroke="none" points="82.5,-204 47.5,-204 47.5,-152 82.5,-152 82.5,-204"/>
<text text-anchor="start" x="52.25" y="-190.5" font-family="Helvetica,sans-Serif" font-size="10.00">Enum</text>
<text text-anchor="start" x="63.5" y="-174.5" font-family="Helvetica,sans-Serif" font-size="10.00"> </text>
<text text-anchor="start" x="63.5" y="-158.5" font-family="Helvetica,sans-Serif" font-size="10.00"> </text>
<polygon fill="#666666" stroke="#666666" points="47.5,-186 47.5,-186 82.5,-186 82.5,-186 47.5,-186"/>
<polygon fill="#666666" stroke="#666666" points="47.5,-170 47.5,-170 82.5,-170 82.5,-170 47.5,-170"/>
<polygon fill="none" stroke="#666666" points="47.5,-152 47.5,-204 82.5,-204 82.5,-152 47.5,-152"/>
</a>
</g>
</g>
<!-- Node3&#45;&gt;Node1 -->
<g id="edge2_Node000001_Node000003" class="edge">
<title>Node3&#45;&gt;Node1</title>
<g id="a_edge2_Node000001_Node000003"><a xlink:title=" ">
<path fill="none" stroke="#63b8ff" d="M58,-141.1C56.44,-133.09 54.75,-124.41 53.07,-115.79"/>
<polygon fill="none" stroke="#63b8ff" points="54.54,-141.63 59.89,-150.78 61.41,-140.29 54.54,-141.63"/>
</a>
</g>
</g>
</g>
</svg>
