<?xml version="1.0" encoding="UTF-8" standalone="no"?>
<!DOCTYPE svg PUBLIC "-//W3C//DTD SVG 1.1//EN"
 "http://www.w3.org/Graphics/SVG/1.1/DTD/svg11.dtd">
<!-- Generated by graphviz version 9.0.0 (20230911.1827)
 -->
<!-- Title: ImportItem Pages: 1 -->
<svg width="72pt" height="180pt"
 viewBox="0.00 0.00 72.00 180.00" xmlns="http://www.w3.org/2000/svg" xmlns:xlink="http://www.w3.org/1999/xlink">
<g id="graph0" class="graph" transform="scale(1 1) rotate(0) translate(4 176)">
<title>ImportItem</title>
<!-- Node1 -->
<g id="Node000001" class="node">
<title>Node1</title>
<g id="a_Node000001"><a xlink:title="properties of item to import">
<polygon fill="#999999" stroke="none" points="62,-84 2,-84 2,0 62,0 62,-84"/>
<text text-anchor="start" x="9.12" y="-70.5" font-family="Helvetica,sans-Serif" font-size="10.00">ImportItem</text>
<text text-anchor="start" x="6" y="-54.5" font-family="Helvetica,sans-Serif" font-size="10.00">+</text>
<text text-anchor="start" x="16" y="-54.5" font-family="Helvetica,sans-Serif" font-size="10.00">name</text>
<text text-anchor="start" x="6" y="-38.5" font-family="Helvetica,sans-Serif" font-size="10.00">+</text>
<text text-anchor="start" x="16" y="-38.5" font-family="Helvetica,sans-Serif" font-size="10.00">price</text>
<text text-anchor="start" x="6" y="-22.5" font-family="Helvetica,sans-Serif" font-size="10.00">+</text>
<text text-anchor="start" x="16" y="-22.5" font-family="Helvetica,sans-Serif" font-size="10.00">tax_group</text>
<text text-anchor="start" x="30.5" y="-6.5" font-family="Helvetica,sans-Serif" font-size="10.00"> </text>
<polygon fill="#666666" stroke="#666666" points="2,-66 2,-66 62,-66 62,-66 2,-66"/>
<polygon fill="#666666" stroke="#666666" points="2,-18 2,-18 14,-18 14,-18 2,-18"/>
<polygon fill="#666666" stroke="#666666" points="14,-18 14,-18 62,-18 62,-18 14,-18"/>
<polygon fill="none" stroke="#666666" points="2,0 2,-84 62,-84 62,0 2,0"/>
</a>
</g>
</g>
<!-- Node2 -->
<g id="Node000002" class="node">
<title>Node2</title>
<g id="a_Node000002"><a xlink:title=" ">
<polygon fill="white" stroke="none" points="64,-172 0,-172 0,-120 64,-120 64,-172"/>
<text text-anchor="start" x="5" y="-158.5" font-family="Helvetica,sans-Serif" font-size="10.00">NamedTuple</text>
<text text-anchor="start" x="30.5" y="-142.5" font-family="Helvetica,sans-Serif" font-size="10.00"> </text>
<text text-anchor="start" x="30.5" y="-126.5" font-family="Helvetica,sans-Serif" font-size="10.00"> </text>
<polygon fill="#666666" stroke="#666666" points="0,-154 0,-154 64,-154 64,-154 0,-154"/>
<polygon fill="#666666" stroke="#666666" points="0,-138 0,-138 64,-138 64,-138 0,-138"/>
<polygon fill="none" stroke="#666666" points="0,-120 0,-172 64,-172 64,-120 0,-120"/>
</a>
</g>
</g>
<!-- Node2&#45;&gt;Node1 -->
<g id="edge1_Node000001_Node000002" class="edge">
<title>Node2&#45;&gt;Node1</title>
<g id="a_edge1_Node000001_Node000002"><a xlink:title=" ">
<path fill="none" stroke="#63b8ff" d="M32,-108.77C32,-100.75 32,-92.19 32,-83.99"/>
<polygon fill="none" stroke="#63b8ff" points="28.5,-108.53 32,-118.53 35.5,-108.53 28.5,-108.53"/>
</a>
</g>
</g>
</g>
</svg>
