<?xml version="1.0" encoding="UTF-8" standalone="no"?>
<!DOCTYPE svg PUBLIC "-//W3C//DTD SVG 1.1//EN"
 "http://www.w3.org/Graphics/SVG/1.1/DTD/svg11.dtd">
<!-- Generated by graphviz version 9.0.0 (20230911.1827)
 -->
<!-- Title: EPrinter Pages: 1 -->
<svg width="82pt" height="180pt"
 viewBox="0.00 0.00 82.00 180.00" xmlns="http://www.w3.org/2000/svg" xmlns:xlink="http://www.w3.org/1999/xlink">

<svg id="main" version="1.1" xmlns="http://www.w3.org/2000/svg" xmlns:xlink="http://www.w3.org/1999/xlink" xml:space="preserve" onload="init(evt)">
<style type="text/css"><![CDATA[
.node, .edge {opacity: 0.7;}
.node.selected, .edge.selected {opacity: 1;}
.edge:hover path { stroke: red; }
.edge:hover polygon { stroke: red; fill: red; }
]]></style>
<script type="application/ecmascript" xlink:href="svg.min.js"/>
<svg id="graph" class="graph">
<g id="graph0" class="graph" transform="scale(1 1) rotate(0) translate(4 176)">
<title>EPrinter</title>
<!-- Node1 -->
<g id="Node000001" class="node">
<title>Node1</title>
<g id="a_Node000001"><a xlink:title="Supported printers.">
<polygon fill="#999999" stroke="none" points="64,-84 3,-84 3,0 64,0 64,-84"/>
<text text-anchor="start" x="15.88" y="-70.5" font-family="Helvetica,sans-Serif" font-size="10.00">EPrinter</text>
<text text-anchor="start" x="7" y="-54.5" font-family="Helvetica,sans-Serif" font-size="10.00">+</text>
<text text-anchor="start" x="17" y="-54.5" font-family="Helvetica,sans-Serif" font-size="10.00">DEFAULT</text>
<text text-anchor="start" x="7" y="-38.5" font-family="Helvetica,sans-Serif" font-size="10.00">+</text>
<text text-anchor="start" x="17" y="-38.5" font-family="Helvetica,sans-Serif" font-size="10.00">EPSON</text>
<text text-anchor="start" x="7" y="-22.5" font-family="Helvetica,sans-Serif" font-size="10.00">+</text>
<text text-anchor="start" x="17" y="-22.5" font-family="Helvetica,sans-Serif" font-size="10.00">PROLIFIC</text>
<text text-anchor="start" x="32" y="-6.5" font-family="Helvetica,sans-Serif" font-size="10.00"> </text>
<polygon fill="#666666" stroke="#666666" points="3,-66 3,-66 64,-66 64,-66 3,-66"/>
<polygon fill="#666666" stroke="#666666" points="3,-18 3,-18 15,-18 15,-18 3,-18"/>
<polygon fill="#666666" stroke="#666666" points="15,-18 15,-18 64,-18 64,-18 15,-18"/>
<polygon fill="none" stroke="#666666" points="3,0 3,-84 64,-84 64,0 3,0"/>
</a>
</g>
</g>
<!-- Node2 -->
<g id="Node000002" class="node">
<title>Node2</title>
<g id="a_Node000002"><a xlink:title=" ">
<polygon fill="white" stroke="none" points="21,-172 0,-172 0,-120 21,-120 21,-172"/>
<text text-anchor="start" x="4.88" y="-158.5" font-family="Helvetica,sans-Serif" font-size="10.00">str</text>
<text text-anchor="start" x="9" y="-142.5" font-family="Helvetica,sans-Serif" font-size="10.00"> </text>
<text text-anchor="start" x="9" y="-126.5" font-family="Helvetica,sans-Serif" font-size="10.00"> </text>
<polygon fill="#666666" stroke="#666666" points="0,-154 0,-154 21,-154 21,-154 0,-154"/>
<polygon fill="#666666" stroke="#666666" points="0,-138 0,-138 21,-138 21,-138 0,-138"/>
<polygon fill="none" stroke="#666666" points="0,-120 0,-172 21,-172 21,-120 0,-120"/>
</a>
</g>
</g>
<!-- Node2&#45;&gt;Node1 -->
<g id="edge1_Node000001_Node000002" class="edge">
<title>Node2&#45;&gt;Node1</title>
<g id="a_edge1_Node000001_Node000002"><a xlink:title=" ">
<path fill="none" stroke="#63b8ff" d="M18.61,-109.05C20.43,-100.95 22.39,-92.28 24.26,-83.99"/>
<polygon fill="none" stroke="#63b8ff" points="15.24,-108.05 16.46,-118.57 22.07,-109.59 15.24,-108.05"/>
</a>
</g>
</g>
<!-- Node3 -->
<g id="Node000003" class="node">
<title>Node3</title>
<g id="a_Node000003"><a xlink:title=" ">
<polygon fill="white" stroke="none" points="74,-172 39,-172 39,-120 74,-120 74,-172"/>
<text text-anchor="start" x="43.75" y="-158.5" font-family="Helvetica,sans-Serif" font-size="10.00">Enum</text>
<text text-anchor="start" x="55" y="-142.5" font-family="Helvetica,sans-Serif" font-size="10.00"> </text>
<text text-anchor="start" x="55" y="-126.5" font-family="Helvetica,sans-Serif" font-size="10.00"> </text>
<polygon fill="#666666" stroke="#666666" points="39,-154 39,-154 74,-154 74,-154 39,-154"/>
<polygon fill="#666666" stroke="#666666" points="39,-138 39,-138 74,-138 74,-138 39,-138"/>
<polygon fill="none" stroke="#666666" points="39,-120 39,-172 74,-172 74,-120 39,-120"/>
</a>
</g>
</g>
<!-- Node3&#45;&gt;Node1 -->
<g id="edge2_Node000001_Node000003" class="edge">
<title>Node3&#45;&gt;Node1</title>
<g id="a_edge2_Node000001_Node000003"><a xlink:title=" ">
<path fill="none" stroke="#63b8ff" d="M48.39,-109.05C46.57,-100.95 44.61,-92.28 42.74,-83.99"/>
<polygon fill="none" stroke="#63b8ff" points="44.93,-109.59 50.54,-118.57 51.76,-108.05 44.93,-109.59"/>
</a>
</g>
</g>
</g>
</svg>
</svg>

<style type='text/css'>
<![CDATA[
[data-mouse-over-selected='false'] { opacity: 0.7; }
[data-mouse-over-selected='true']  { opacity: 1.0; }
]]>
</style>
<script type="application/ecmascript"><![CDATA[
document.addEventListener('DOMContentLoaded', (event) => {
  highlightEdges();
  highlightAdjacentNodes();
});
]]></script>
</svg>
