<?xml version="1.0" encoding="UTF-8" standalone="no"?>
<!DOCTYPE svg PUBLIC "-//W3C//DTD SVG 1.1//EN"
 "http://www.w3.org/Graphics/SVG/1.1/DTD/svg11.dtd">
<!-- Generated by graphviz version 9.0.0 (20230911.1827)
 -->
<!-- Title: Graphical Class Hierarchy Pages: 1 -->
<svg width="206pt" height="66pt"
 viewBox="0.00 0.00 205.75 66.00" xmlns="http://www.w3.org/2000/svg" xmlns:xlink="http://www.w3.org/1999/xlink">
<g id="graph0" class="graph" transform="scale(1 1) rotate(0) translate(4 62)">
<title>Graphical Class Hierarchy</title>
<!-- Node0 -->
<g id="Node000000" class="node">
<title>Node0</title>
<g id="a_Node000000"><a xlink:title=" ">
<polygon fill="#e0e0e0" stroke="#999999" points="55,-39 0,-39 0,-19 55,-19 55,-39"/>
<text text-anchor="middle" x="27.5" y="-25.5" font-family="Helvetica,sans-Serif" font-size="10.00">THREAD</text>
</a>
</g>
</g>
<!-- Node1 -->
<g id="Node000001" class="node">
<title>Node1</title>
<g id="a_Node000001"><a xlink:href="class_source_1_1_worker_1_1open__notepad_1_1_open_notepad_worker.html" target="_top" xlink:title="Open Notepad Worker.">
<polygon fill="white" stroke="#666666" points="197.75,-58 91,-58 91,-38 197.75,-38 197.75,-58"/>
<text text-anchor="middle" x="144.38" y="-44.5" font-family="Helvetica,sans-Serif" font-size="10.00">OpenNotepadWorker</text>
</a>
</g>
</g>
<!-- Node0&#45;&gt;Node1 -->
<g id="edge28_Node000000_Node000001" class="edge">
<title>Node0&#45;&gt;Node1</title>
<g id="a_edge28_Node000000_Node000001"><a xlink:title=" ">
<path fill="none" stroke="#63b8ff" d="M66.7,-35.32C74.45,-36.6 82.73,-37.97 90.88,-39.32"/>
<polygon fill="#63b8ff" stroke="#63b8ff" points="67.36,-31.88 56.93,-33.7 66.22,-38.79 67.36,-31.88"/>
</a>
</g>
</g>
<!-- Node2 -->
<g id="Node000002" class="node">
<title>Node2</title>
<g id="a_Node000002"><a xlink:href="class_source_1_1_worker_1_1printer_1_1_printer.html" target="_top" xlink:title="Class create bons and printout.">
<polygon fill="white" stroke="#666666" points="166.62,-20 122.12,-20 122.12,0 166.62,0 166.62,-20"/>
<text text-anchor="middle" x="144.38" y="-6.5" font-family="Helvetica,sans-Serif" font-size="10.00">Printer</text>
</a>
</g>
</g>
<!-- Node0&#45;&gt;Node2 -->
<g id="edge29_Node000000_Node000002" class="edge">
<title>Node0&#45;&gt;Node2</title>
<g id="a_edge29_Node000000_Node000002"><a xlink:title=" ">
<path fill="none" stroke="#63b8ff" d="M66.71,-22.68C85.11,-19.64 106.48,-16.1 121.98,-13.54"/>
<polygon fill="#63b8ff" stroke="#63b8ff" points="66.22,-19.21 56.93,-24.3 67.36,-26.12 66.22,-19.21"/>
</a>
</g>
</g>
</g>
</svg>
