<?xml version="1.0" encoding="UTF-8" standalone="no"?>
<!DOCTYPE svg PUBLIC "-//W3C//DTD SVG 1.1//EN"
 "http://www.w3.org/Graphics/SVG/1.1/DTD/svg11.dtd">
<!-- Generated by graphviz version 9.0.0 (20230911.1827)
 -->
<!-- Title: Graphical Class Hierarchy Pages: 1 -->
<svg width="185pt" height="294pt"
 viewBox="0.00 0.00 184.75 294.00" xmlns="http://www.w3.org/2000/svg" xmlns:xlink="http://www.w3.org/1999/xlink">
<g id="graph0" class="graph" transform="scale(1 1) rotate(0) translate(4 290)">
<title>Graphical Class Hierarchy</title>
<!-- Node0 -->
<g id="Node000000" class="node">
<title>Node0</title>
<g id="a_Node000000"><a xlink:title=" ">
<polygon fill="#e0e0e0" stroke="#999999" points="41.5,-134 0,-134 0,-114 41.5,-114 41.5,-134"/>
<text text-anchor="middle" x="20.75" y="-120.5" font-family="Helvetica,sans-Serif" font-size="10.00">Enum</text>
</a>
</g>
</g>
<!-- Node1 -->
<g id="Node000001" class="node">
<title>Node1</title>
<g id="a_Node000001"><a xlink:href="class_source_1_1_controller_1_1main__window_1_1_e_config_selection.html" target="_top" xlink:title="Mode of configuration change.">
<polygon fill="white" stroke="#666666" points="172.25,-210 82,-210 82,-190 172.25,-190 172.25,-210"/>
<text text-anchor="middle" x="127.12" y="-196.5" font-family="Helvetica,sans-Serif" font-size="10.00">EConfigSelection</text>
</a>
</g>
</g>
<!-- Node0&#45;&gt;Node1 -->
<g id="edge1_Node000000_Node000001" class="edge">
<title>Node0&#45;&gt;Node1</title>
<g id="a_edge1_Node000000_Node000001"><a xlink:title=" ">
<path fill="none" stroke="#63b8ff" d="M40.7,-142.2C40.97,-142.47 41.24,-142.73 41.5,-143 57.89,-159.51 58.2,-168.01 77.5,-181 82.39,-184.29 87.93,-187.13 93.47,-189.55"/>
<polygon fill="#63b8ff" stroke="#63b8ff" points="43.38,-139.92 33.79,-135.42 38.48,-144.92 43.38,-139.92"/>
</a>
</g>
</g>
<!-- Node3 -->
<g id="Node000003" class="node">
<title>Node3</title>
<g id="a_Node000003"><a xlink:href="class_source_1_1_model_1_1authentication_1_1_e_window_view.html" target="_top" xlink:title="View of window.">
<polygon fill="white" stroke="#666666" points="166.25,-172 88,-172 88,-152 166.25,-152 166.25,-172"/>
<text text-anchor="middle" x="127.12" y="-158.5" font-family="Helvetica,sans-Serif" font-size="10.00">EWindowView</text>
</a>
</g>
</g>
<!-- Node0&#45;&gt;Node3 -->
<g id="edge2_Node000000_Node000003" class="edge">
<title>Node0&#45;&gt;Node3</title>
<g id="a_edge2_Node000000_Node000003"><a xlink:title=" ">
<path fill="none" stroke="#63b8ff" d="M52.59,-135.23C66.77,-140.39 83.47,-146.47 97.38,-151.53"/>
<polygon fill="#63b8ff" stroke="#63b8ff" points="53.89,-131.98 43.3,-131.84 51.5,-138.55 53.89,-131.98"/>
</a>
</g>
</g>
<!-- Node4 -->
<g id="Node000004" class="node">
<title>Node4</title>
<g id="a_Node000004"><a xlink:href="class_source_1_1_util_1_1bonprinter__data_1_1_e_languages.html" target="_top" xlink:title="Available application languages.">
<polygon fill="white" stroke="#666666" points="162.12,-134 92.12,-134 92.12,-114 162.12,-114 162.12,-134"/>
<text text-anchor="middle" x="127.12" y="-120.5" font-family="Helvetica,sans-Serif" font-size="10.00">ELanguages</text>
</a>
</g>
</g>
<!-- Node0&#45;&gt;Node4 -->
<g id="edge3_Node000000_Node000004" class="edge">
<title>Node0&#45;&gt;Node4</title>
<g id="a_edge3_Node000000_Node000004"><a xlink:title=" ">
<path fill="none" stroke="#63b8ff" d="M53.28,-124C65.4,-124 79.3,-124 91.68,-124"/>
<polygon fill="#63b8ff" stroke="#63b8ff" points="53.39,-120.5 43.39,-124 53.39,-127.5 53.39,-120.5"/>
</a>
</g>
</g>
<!-- Node9 -->
<g id="Node000009" class="node">
<title>Node9</title>
<g id="a_Node000009"><a xlink:href="class_source_1_1_util_1_1bonprinter__data_1_1_e_paper.html" target="_top" xlink:title="Supported paper widths of printer.">
<polygon fill="white" stroke="#666666" points="151.25,-20 103,-20 103,0 151.25,0 151.25,-20"/>
<text text-anchor="middle" x="127.12" y="-6.5" font-family="Helvetica,sans-Serif" font-size="10.00">EPaper</text>
</a>
</g>
</g>
<!-- Node0&#45;&gt;Node9 -->
<g id="edge4_Node000000_Node000009" class="edge">
<title>Node0&#45;&gt;Node9</title>
<g id="a_edge4_Node000000_Node000009"><a xlink:title=" ">
<path fill="none" stroke="#63b8ff" d="M29.25,-103.11C37.87,-81.81 53.93,-49.11 77.5,-29 84.67,-22.88 94.04,-18.6 102.64,-15.67"/>
<polygon fill="#63b8ff" stroke="#63b8ff" points="26.07,-101.62 25.76,-112.21 32.61,-104.12 26.07,-101.62"/>
</a>
</g>
</g>
<!-- Node5 -->
<g id="Node000005" class="node">
<title>Node5</title>
<g id="a_Node000005"><a xlink:href="class_source_1_1_util_1_1bonprinter__data_1_1_e_theme.html" target="_top" xlink:title="Available application themes.">
<polygon fill="white" stroke="#666666" points="153.12,-96 101.12,-96 101.12,-76 153.12,-76 153.12,-96"/>
<text text-anchor="middle" x="127.12" y="-82.5" font-family="Helvetica,sans-Serif" font-size="10.00">ETheme</text>
</a>
</g>
</g>
<!-- Node0&#45;&gt;Node5 -->
<g id="edge5_Node000000_Node000005" class="edge">
<title>Node0&#45;&gt;Node5</title>
<g id="a_edge5_Node000000_Node000005"><a xlink:title=" ">
<path fill="none" stroke="#63b8ff" d="M52.46,-112.82C67.88,-107.21 86.32,-100.49 100.89,-95.19"/>
<polygon fill="#63b8ff" stroke="#63b8ff" points="51.5,-109.45 43.3,-116.16 53.89,-116.02 51.5,-109.45"/>
</a>
</g>
</g>
<!-- Node6 -->
<g id="Node000006" class="node">
<title>Node6</title>
<g id="a_Node000006"><a xlink:href="class_source_1_1_util_1_1bonprinter__data_1_1_e_user.html" target="_top" xlink:title="Present users.">
<polygon fill="white" stroke="#666666" points="148.62,-58 105.62,-58 105.62,-38 148.62,-38 148.62,-58"/>
<text text-anchor="middle" x="127.12" y="-44.5" font-family="Helvetica,sans-Serif" font-size="10.00">EUser</text>
</a>
</g>
</g>
<!-- Node0&#45;&gt;Node6 -->
<g id="edge6_Node000000_Node000006" class="edge">
<title>Node0&#45;&gt;Node6</title>
<g id="a_edge6_Node000000_Node000006"><a xlink:title=" ">
<path fill="none" stroke="#63b8ff" d="M36.42,-105.3C46.82,-93.07 61.68,-77.47 77.5,-67 85.97,-61.4 96.33,-57.06 105.31,-53.96"/>
<polygon fill="#63b8ff" stroke="#63b8ff" points="34,-102.74 30.36,-112.69 39.41,-107.18 34,-102.74"/>
</a>
</g>
</g>
<!-- Node7 -->
<g id="Node000007" class="node">
<title>Node7</title>
<g id="a_Node000007"><a xlink:href="class_source_1_1_worker_1_1open__notepad_1_1_e_notepad_selection.html" target="_top" xlink:title="File selection to open notepad.">
<polygon fill="white" stroke="#666666" points="176.75,-286 77.5,-286 77.5,-266 176.75,-266 176.75,-286"/>
<text text-anchor="middle" x="127.12" y="-272.5" font-family="Helvetica,sans-Serif" font-size="10.00">ENotepadSelection</text>
</a>
</g>
</g>
<!-- Node0&#45;&gt;Node7 -->
<g id="edge7_Node000000_Node000007" class="edge">
<title>Node0&#45;&gt;Node7</title>
<g id="a_edge7_Node000000_Node000007"><a xlink:title=" ">
<path fill="none" stroke="#63b8ff" d="M40.34,-144.22C66.23,-191.94 43.47,-220.62 77.5,-257 80.72,-260.44 84.64,-263.27 88.84,-265.59"/>
<polygon fill="#63b8ff" stroke="#63b8ff" points="43.39,-142.5 35.26,-135.71 37.38,-146.09 43.39,-142.5"/>
</a>
</g>
</g>
<!-- Node8 -->
<g id="Node000008" class="node">
<title>Node8</title>
<g id="a_Node000008"><a xlink:href="class_source_1_1_worker_1_1printer_1_1_e_printer.html" target="_top" xlink:title="Supported printers.">
<polygon fill="white" stroke="#666666" points="152.75,-248 101.5,-248 101.5,-228 152.75,-228 152.75,-248"/>
<text text-anchor="middle" x="127.12" y="-234.5" font-family="Helvetica,sans-Serif" font-size="10.00">EPrinter</text>
</a>
</g>
</g>
<!-- Node0&#45;&gt;Node8 -->
<g id="edge8_Node000000_Node000008" class="edge">
<title>Node0&#45;&gt;Node8</title>
<g id="a_edge8_Node000000_Node000008"><a xlink:title=" ">
<path fill="none" stroke="#63b8ff" d="M41.29,-142.71C41.36,-142.81 41.43,-142.9 41.5,-143 63.32,-173.34 50.16,-193.51 77.5,-219 84.06,-225.12 92.82,-229.35 101.1,-232.23"/>
<polygon fill="#63b8ff" stroke="#63b8ff" points="44.02,-140.51 34.77,-135.35 38.78,-145.15 44.02,-140.51"/>
</a>
</g>
</g>
<!-- Node10 -->
<g id="Node000010" class="node">
<title>Node10</title>
<g id="a_Node000010"><a xlink:title=" ">
<polygon fill="#e0e0e0" stroke="#999999" points="35.15,-20 6.35,-20 6.35,0 35.15,0 35.15,-20"/>
<text text-anchor="middle" x="20.75" y="-6.5" font-family="Helvetica,sans-Serif" font-size="10.00">int</text>
</a>
</g>
</g>
<!-- Node10&#45;&gt;Node9 -->
<g id="edge9_Node000010_Node000009" class="edge">
<title>Node10&#45;&gt;Node9</title>
<g id="a_edge9_Node000010_Node000009"><a xlink:title=" ">
<path fill="none" stroke="#63b8ff" d="M46.71,-10C63.77,-10 86.22,-10 102.9,-10"/>
<polygon fill="#63b8ff" stroke="#63b8ff" points="46.91,-6.5 36.91,-10 46.91,-13.5 46.91,-6.5"/>
</a>
</g>
</g>
<!-- Node2 -->
<g id="Node000002" class="node">
<title>Node2</title>
<g id="a_Node000002"><a xlink:title=" ">
<polygon fill="#e0e0e0" stroke="#999999" points="35.15,-172 6.35,-172 6.35,-152 35.15,-152 35.15,-172"/>
<text text-anchor="middle" x="20.75" y="-158.5" font-family="Helvetica,sans-Serif" font-size="10.00">str</text>
</a>
</g>
</g>
<!-- Node2&#45;&gt;Node1 -->
<g id="edge10_Node000002_Node000001" class="edge">
<title>Node2&#45;&gt;Node1</title>
<g id="a_edge10_Node000002_Node000001"><a xlink:title=" ">
<path fill="none" stroke="#63b8ff" d="M46.12,-170.87C61.49,-176.47 81.4,-183.72 97.51,-189.58"/>
<polygon fill="#63b8ff" stroke="#63b8ff" points="47.41,-167.62 36.82,-167.49 45.02,-174.2 47.41,-167.62"/>
</a>
</g>
</g>
<!-- Node2&#45;&gt;Node3 -->
<g id="edge11_Node000002_Node000003" class="edge">
<title>Node2&#45;&gt;Node3</title>
<g id="a_edge11_Node000002_Node000003"><a xlink:title=" ">
<path fill="none" stroke="#63b8ff" d="M46.59,-162C58.89,-162 74,-162 87.74,-162"/>
<polygon fill="#63b8ff" stroke="#63b8ff" points="46.91,-158.5 36.91,-162 46.91,-165.5 46.91,-158.5"/>
</a>
</g>
</g>
<!-- Node2&#45;&gt;Node4 -->
<g id="edge12_Node000002_Node000004" class="edge">
<title>Node2&#45;&gt;Node4</title>
<g id="a_edge12_Node000002_Node000004"><a xlink:title=" ">
<path fill="none" stroke="#63b8ff" d="M46.12,-153.13C61.49,-147.53 81.4,-140.28 97.51,-134.42"/>
<polygon fill="#63b8ff" stroke="#63b8ff" points="45.02,-149.8 36.82,-156.51 47.41,-156.38 45.02,-149.8"/>
</a>
</g>
</g>
<!-- Node2&#45;&gt;Node5 -->
<g id="edge13_Node000002_Node000005" class="edge">
<title>Node2&#45;&gt;Node5</title>
<g id="a_edge13_Node000002_Node000005"><a xlink:title=" ">
<path fill="none" stroke="#63b8ff" d="M40.7,-143.8C40.97,-143.53 41.24,-143.27 41.5,-143 57.89,-126.49 58.2,-117.99 77.5,-105 84.57,-100.24 93,-96.42 100.84,-93.48"/>
<polygon fill="#63b8ff" stroke="#63b8ff" points="38.48,-141.08 33.79,-150.58 43.38,-146.08 38.48,-141.08"/>
</a>
</g>
</g>
<!-- Node2&#45;&gt;Node6 -->
<g id="edge14_Node000002_Node000006" class="edge">
<title>Node2&#45;&gt;Node6</title>
<g id="a_edge14_Node000002_Node000006"><a xlink:title=" ">
<path fill="none" stroke="#63b8ff" d="M41.29,-143.29C41.36,-143.19 41.43,-143.1 41.5,-143 63.32,-112.66 50.16,-92.49 77.5,-67 85.19,-59.83 95.89,-55.26 105.3,-52.4"/>
<polygon fill="#63b8ff" stroke="#63b8ff" points="38.78,-140.85 34.77,-150.65 44.02,-145.49 38.78,-140.85"/>
</a>
</g>
</g>
<!-- Node2&#45;&gt;Node7 -->
<g id="edge15_Node000002_Node000007" class="edge">
<title>Node2&#45;&gt;Node7</title>
<g id="a_edge15_Node000002_Node000007"><a xlink:title=" ">
<path fill="none" stroke="#63b8ff" d="M29.25,-182.89C37.87,-204.19 53.93,-236.89 77.5,-257 81.5,-260.41 86.18,-263.25 91.03,-265.61"/>
<polygon fill="#63b8ff" stroke="#63b8ff" points="32.61,-181.88 25.76,-173.79 26.07,-184.38 32.61,-181.88"/>
</a>
</g>
</g>
<!-- Node2&#45;&gt;Node8 -->
<g id="edge16_Node000002_Node000008" class="edge">
<title>Node2&#45;&gt;Node8</title>
<g id="a_edge16_Node000002_Node000008"><a xlink:title=" ">
<path fill="none" stroke="#63b8ff" d="M36.42,-180.7C46.82,-192.93 61.68,-208.53 77.5,-219 84.68,-223.75 93.23,-227.59 101.14,-230.54"/>
<polygon fill="#63b8ff" stroke="#63b8ff" points="39.41,-178.82 30.36,-173.31 34,-183.26 39.41,-178.82"/>
</a>
</g>
</g>
</g>
</svg>
