<?xml version="1.0" encoding="UTF-8" standalone="no"?>
<!DOCTYPE svg PUBLIC "-//W3C//DTD SVG 1.1//EN"
 "http://www.w3.org/Graphics/SVG/1.1/DTD/svg11.dtd">
<!-- Generated by graphviz version 9.0.0 (20230911.1827)
 -->
<!-- Title: Graphical Class Hierarchy Pages: 1 -->
<svg width="176pt" height="66pt"
 viewBox="0.00 0.00 175.75 66.00" xmlns="http://www.w3.org/2000/svg" xmlns:xlink="http://www.w3.org/1999/xlink">
<g id="graph0" class="graph" transform="scale(1 1) rotate(0) translate(4 62)">
<title>Graphical Class Hierarchy</title>
<!-- Node0 -->
<g id="Node000000" class="node">
<title>Node0</title>
<g id="a_Node000000"><a xlink:title=" ">
<polygon fill="#e0e0e0" stroke="#999999" points="70,-39 0,-39 0,-19 70,-19 70,-39"/>
<text text-anchor="middle" x="35" y="-25.5" font-family="Helvetica,sans-Serif" font-size="10.00">NamedTuple</text>
</a>
</g>
</g>
<!-- Node1 -->
<g id="Node000001" class="node">
<title>Node1</title>
<g id="a_Node000001"><a xlink:href="class_source_1_1_model_1_1pdf__import_1_1_import_item.html" target="_top" xlink:title="properties of item to import">
<polygon fill="white" stroke="#666666" points="167.75,-58 106,-58 106,-38 167.75,-38 167.75,-58"/>
<text text-anchor="middle" x="136.88" y="-44.5" font-family="Helvetica,sans-Serif" font-size="10.00">ImportItem</text>
</a>
</g>
</g>
<!-- Node0&#45;&gt;Node1 -->
<g id="edge19_Node000000_Node000001" class="edge">
<title>Node0&#45;&gt;Node1</title>
<g id="a_edge19_Node000000_Node000001"><a xlink:title=" ">
<path fill="none" stroke="#63b8ff" d="M81.44,-37.64C89.69,-39.21 98.11,-40.81 105.78,-42.27"/>
<polygon fill="#63b8ff" stroke="#63b8ff" points="82.34,-34.25 71.86,-35.82 81.03,-41.13 82.34,-34.25"/>
</a>
</g>
</g>
<!-- Node2 -->
<g id="Node000002" class="node">
<title>Node2</title>
<g id="a_Node000002"><a xlink:href="class_source_1_1_model_1_1report_1_1_item.html" target="_top" xlink:title="properties of printed article">
<polygon fill="white" stroke="#666666" points="154.25,-20 119.5,-20 119.5,0 154.25,0 154.25,-20"/>
<text text-anchor="middle" x="136.88" y="-6.5" font-family="Helvetica,sans-Serif" font-size="10.00">Item</text>
</a>
</g>
</g>
<!-- Node0&#45;&gt;Node2 -->
<g id="edge20_Node000000_Node000002" class="edge">
<title>Node0&#45;&gt;Node2</title>
<g id="a_edge20_Node000000_Node000002"><a xlink:title=" ">
<path fill="none" stroke="#63b8ff" d="M81.46,-20.35C94.88,-17.8 108.74,-15.16 119.11,-13.19"/>
<polygon fill="#63b8ff" stroke="#63b8ff" points="81.03,-16.87 71.86,-22.18 82.34,-23.75 81.03,-16.87"/>
</a>
</g>
</g>
</g>
</svg>
