<?xml version="1.0" encoding="UTF-8" standalone="no"?>
<!DOCTYPE svg PUBLIC "-//W3C//DTD SVG 1.1//EN"
 "http://www.w3.org/Graphics/SVG/1.1/DTD/svg11.dtd">
<!-- Generated by graphviz version 9.0.0 (20230911.1827)
 -->
<!-- Title: Graphical Class Hierarchy Pages: 1 -->
<svg width="177pt" height="218pt"
 viewBox="0.00 0.00 177.25 218.00" xmlns="http://www.w3.org/2000/svg" xmlns:xlink="http://www.w3.org/1999/xlink">
<g id="graph0" class="graph" transform="scale(1 1) rotate(0) translate(4 214)">
<title>Graphical Class Hierarchy</title>
<!-- Node0 -->
<g id="Node000000" class="node">
<title>Node0</title>
<g id="a_Node000000"><a xlink:title=" ">
<polygon fill="#e0e0e0" stroke="#999999" points="42.25,-115 0,-115 0,-95 42.25,-95 42.25,-115"/>
<text text-anchor="middle" x="21.12" y="-101.5" font-family="Helvetica,sans-Serif" font-size="10.00">object</text>
</a>
</g>
</g>
<!-- Node1 -->
<g id="Node000001" class="node">
<title>Node1</title>
<g id="a_Node000001"><a xlink:href="classdialog__about__ui_1_1_ui___about_dialog.html" target="_top" xlink:title=" ">
<polygon fill="white" stroke="#666666" points="165.12,-210 82.38,-210 82.38,-190 165.12,-190 165.12,-210"/>
<text text-anchor="middle" x="123.75" y="-196.5" font-family="Helvetica,sans-Serif" font-size="10.00">Ui_AboutDialog</text>
</a>
</g>
</g>
<!-- Node0&#45;&gt;Node1 -->
<g id="edge21_Node000000_Node000001" class="edge">
<title>Node0&#45;&gt;Node1</title>
<g id="a_edge21_Node000000_Node000001"><a xlink:title=" ">
<path fill="none" stroke="#63b8ff" d="M33.07,-125.41C42.97,-142.23 58.94,-165.73 78.25,-181 82.47,-184.33 87.36,-187.19 92.32,-189.6"/>
<polygon fill="#63b8ff" stroke="#63b8ff" points="36.17,-123.78 28.21,-116.79 30.08,-127.22 36.17,-123.78"/>
</a>
</g>
</g>
<!-- Node2 -->
<g id="Node000002" class="node">
<title>Node2</title>
<g id="a_Node000002"><a xlink:href="classdialog__help__ui_1_1_ui___help_dialog.html" target="_top" xlink:title=" ">
<polygon fill="white" stroke="#666666" points="162.12,-172 85.38,-172 85.38,-152 162.12,-152 162.12,-172"/>
<text text-anchor="middle" x="123.75" y="-158.5" font-family="Helvetica,sans-Serif" font-size="10.00">Ui_HelpDialog</text>
</a>
</g>
</g>
<!-- Node0&#45;&gt;Node2 -->
<g id="edge22_Node000000_Node000002" class="edge">
<title>Node0&#45;&gt;Node2</title>
<g id="a_edge22_Node000000_Node000002"><a xlink:title=" ">
<path fill="none" stroke="#63b8ff" d="M45.12,-122.03C55.03,-128.99 66.94,-136.83 78.25,-143 83.85,-146.06 90.05,-148.97 96,-151.56"/>
<polygon fill="#63b8ff" stroke="#63b8ff" points="47.35,-119.32 37.18,-116.34 43.27,-125.01 47.35,-119.32"/>
</a>
</g>
</g>
<!-- Node3 -->
<g id="Node000003" class="node">
<title>Node3</title>
<g id="a_Node000003"><a xlink:href="classdialog__report__ui_1_1_ui___report_dialog.html" target="_top" xlink:title=" ">
<polygon fill="white" stroke="#666666" points="166.62,-134 80.88,-134 80.88,-114 166.62,-114 166.62,-134"/>
<text text-anchor="middle" x="123.75" y="-120.5" font-family="Helvetica,sans-Serif" font-size="10.00">Ui_ReportDialog</text>
</a>
</g>
</g>
<!-- Node0&#45;&gt;Node3 -->
<g id="edge23_Node000000_Node000003" class="edge">
<title>Node0&#45;&gt;Node3</title>
<g id="a_edge23_Node000000_Node000003"><a xlink:title=" ">
<path fill="none" stroke="#63b8ff" d="M53.76,-110.97C62.21,-112.57 71.47,-114.32 80.39,-116"/>
<polygon fill="#63b8ff" stroke="#63b8ff" points="54.45,-107.54 43.98,-109.13 53.15,-114.42 54.45,-107.54"/>
</a>
</g>
</g>
<!-- Node4 -->
<g id="Node000004" class="node">
<title>Node4</title>
<g id="a_Node000004"><a xlink:href="classdialog__report__ui__tk_1_1_ui___report_dialog.html" target="_top" xlink:title=" ">
<polygon fill="white" stroke="#666666" points="166.62,-96 80.88,-96 80.88,-76 166.62,-76 166.62,-96"/>
<text text-anchor="middle" x="123.75" y="-82.5" font-family="Helvetica,sans-Serif" font-size="10.00">Ui_ReportDialog</text>
</a>
</g>
</g>
<!-- Node0&#45;&gt;Node4 -->
<g id="edge24_Node000000_Node000004" class="edge">
<title>Node0&#45;&gt;Node4</title>
<g id="a_edge24_Node000000_Node000004"><a xlink:title=" ">
<path fill="none" stroke="#63b8ff" d="M53.76,-99.03C62.21,-97.43 71.47,-95.68 80.39,-94"/>
<polygon fill="#63b8ff" stroke="#63b8ff" points="53.15,-95.58 43.98,-100.87 54.45,-102.46 53.15,-95.58"/>
</a>
</g>
</g>
<!-- Node5 -->
<g id="Node000005" class="node">
<title>Node5</title>
<g id="a_Node000005"><a xlink:href="classdialog__splash__ui_1_1_ui___splash_screen.html" target="_top" xlink:title=" ">
<polygon fill="white" stroke="#666666" points="169.25,-58 78.25,-58 78.25,-38 169.25,-38 169.25,-58"/>
<text text-anchor="middle" x="123.75" y="-44.5" font-family="Helvetica,sans-Serif" font-size="10.00">Ui_SplashScreen</text>
</a>
</g>
</g>
<!-- Node0&#45;&gt;Node5 -->
<g id="edge25_Node000000_Node000005" class="edge">
<title>Node0&#45;&gt;Node5</title>
<g id="a_edge25_Node000000_Node000005"><a xlink:title=" ">
<path fill="none" stroke="#63b8ff" d="M45.12,-87.97C55.03,-81.01 66.94,-73.17 78.25,-67 83.85,-63.94 90.05,-61.03 96,-58.44"/>
<polygon fill="#63b8ff" stroke="#63b8ff" points="43.27,-84.99 37.18,-93.66 47.35,-90.68 43.27,-84.99"/>
</a>
</g>
</g>
<!-- Node6 -->
<g id="Node000006" class="node">
<title>Node6</title>
<g id="a_Node000006"><a xlink:href="classmainwindow__ui_1_1_ui___main_window.html" target="_top" xlink:title=" ">
<polygon fill="white" stroke="#666666" points="166.62,-20 80.88,-20 80.88,0 166.62,0 166.62,-20"/>
<text text-anchor="middle" x="123.75" y="-6.5" font-family="Helvetica,sans-Serif" font-size="10.00">Ui_MainWindow</text>
</a>
</g>
</g>
<!-- Node0&#45;&gt;Node6 -->
<g id="edge26_Node000000_Node000006" class="edge">
<title>Node0&#45;&gt;Node6</title>
<g id="a_edge26_Node000000_Node000006"><a xlink:title=" ">
<path fill="none" stroke="#63b8ff" d="M33.07,-84.59C42.97,-67.77 58.94,-44.27 78.25,-29 82.47,-25.67 87.36,-22.81 92.32,-20.4"/>
<polygon fill="#63b8ff" stroke="#63b8ff" points="30.08,-82.78 28.21,-93.21 36.17,-86.22 30.08,-82.78"/>
</a>
</g>
</g>
</g>
</svg>
