<?xml version="1.0" encoding="UTF-8" standalone="no"?>
<!DOCTYPE svg PUBLIC "-//W3C//DTD SVG 1.1//EN"
 "http://www.w3.org/Graphics/SVG/1.1/DTD/svg11.dtd">
<!-- Generated by graphviz version 9.0.0 (20230911.1827)
 -->
<!-- Title: Graphical Class Hierarchy Pages: 1 -->
<svg width="205pt" height="66pt"
 viewBox="0.00 0.00 205.00 66.00" xmlns="http://www.w3.org/2000/svg" xmlns:xlink="http://www.w3.org/1999/xlink">
<g id="graph0" class="graph" transform="scale(1 1) rotate(0) translate(4 62)">
<title>Graphical Class Hierarchy</title>
<!-- Node0 -->
<g id="Node000000" class="node">
<title>Node0</title>
<g id="a_Node000000"><a xlink:title=" ">
<polygon fill="#e0e0e0" stroke="#999999" points="88.75,-58 0.75,-58 0.75,-38 88.75,-38 88.75,-58"/>
<text text-anchor="middle" x="44.75" y="-44.5" font-family="Helvetica,sans-Serif" font-size="10.00">MAIN_WINDOW</text>
</a>
</g>
</g>
<!-- Node1 -->
<g id="Node000001" class="node">
<title>Node1</title>
<g id="a_Node000001"><a xlink:href="class_source_1_1_controller_1_1main__window_1_1_main_window.html" target="_top" xlink:title="The view&#45;controller for main window.">
<polygon fill="white" stroke="#666666" points="197,-39 125.5,-39 125.5,-19 197,-19 197,-39"/>
<text text-anchor="middle" x="161.25" y="-25.5" font-family="Helvetica,sans-Serif" font-size="10.00">MainWindow</text>
</a>
</g>
</g>
<!-- Node0&#45;&gt;Node1 -->
<g id="edge17_Node000000_Node000001" class="edge">
<title>Node0&#45;&gt;Node1</title>
<g id="a_edge17_Node000000_Node000001"><a xlink:title=" ">
<path fill="none" stroke="#63b8ff" d="M100.38,-38.93C108.79,-37.54 117.27,-36.13 125.09,-34.83"/>
<polygon fill="#63b8ff" stroke="#63b8ff" points="99.82,-35.48 90.53,-40.57 100.97,-42.38 99.82,-35.48"/>
</a>
</g>
</g>
<!-- Node2 -->
<g id="Node000002" class="node">
<title>Node2</title>
<g id="a_Node000002"><a xlink:title=" ">
<polygon fill="#e0e0e0" stroke="#999999" points="89.5,-20 0,-20 0,0 89.5,0 89.5,-20"/>
<text text-anchor="middle" x="44.75" y="-6.5" font-family="Helvetica,sans-Serif" font-size="10.00">WINDOW_TYPE</text>
</a>
</g>
</g>
<!-- Node2&#45;&gt;Node1 -->
<g id="edge18_Node000002_Node000001" class="edge">
<title>Node2&#45;&gt;Node1</title>
<g id="a_edge18_Node000002_Node000001"><a xlink:title=" ">
<path fill="none" stroke="#63b8ff" d="M100.85,-19.14C109.12,-20.51 117.44,-21.9 125.13,-23.17"/>
<polygon fill="#63b8ff" stroke="#63b8ff" points="101.62,-15.72 91.18,-17.54 100.48,-22.63 101.62,-15.72"/>
</a>
</g>
</g>
</g>
</svg>
